<svg xmlns="http://www.w3.org/2000/svg" width="400" height="300" viewBox="0 0 400 300">
  <defs>
    <linearGradient id="bg" x1="0" y1="0" x2="1" y2="1">
      <stop offset="0" stop-color="#22d3ee"/>
      <stop offset="1" stop-color="#7c3aed"/>
    </linearGradient>
    <radialGradient id="hl" cx="0.25" cy="0.18" r="0.85">
      <stop offset="0" stop-color="#fff" stop-opacity="0.55"/>
      <stop offset="1" stop-color="#fff" stop-opacity="0"/>
    </radialGradient>
    <filter id="sh" x="-30%" y="-30%" width="160%" height="160%">
      <feGaussianBlur in="SourceAlpha" stdDeviation="2.5"/>
      <feOffset dx="0" dy="3" result="o"/>
      <feFlood flood-color="black" flood-opacity="0.28"/>
      <feComposite in2="o" operator="in"/>
      <feMerge><feMergeNode/><feMergeNode in="SourceGraphic"/></feMerge>
    </filter>
    <filter id="bigsh" x="-30%" y="-30%" width="160%" height="160%">
      <feGaussianBlur in="SourceAlpha" stdDeviation="6"/>
      <feOffset dx="0" dy="6" result="o"/>
      <feFlood flood-color="black" flood-opacity="0.35"/>
      <feComposite in2="o" operator="in"/>
      <feMerge><feMergeNode/><feMergeNode in="SourceGraphic"/></feMerge>
    </filter>
  </defs>
  <rect width="400" height="300" fill="url(#bg)"/>
  <rect width="400" height="300" fill="url(#hl)"/>
  
  <g filter="url(#sh)">
    <!-- big T piece -->
    <g transform="translate(150,60)">
      <rect width="44" height="44" rx="6" fill="#5db8ff"/>
      <rect x="44" width="44" height="44" rx="6" fill="#5db8ff"/>
      <rect x="88" width="44" height="44" rx="6" fill="#5db8ff"/>
      <rect x="44" y="44" width="44" height="44" rx="6" fill="#5db8ff"/>
      <ellipse cx="20" cy="18" rx="14" ry="6" fill="rgba(255,255,255,0.45)"/>
    </g>
    <!-- big L piece -->
    <g transform="translate(60,170)">
      <rect width="40" height="40" rx="6" fill="#ff4d6d"/>
      <rect y="40" width="40" height="40" rx="6" fill="#ff4d6d"/>
      <rect y="80" width="40" height="40" rx="6" fill="#ff4d6d"/>
      <rect x="40" y="80" width="40" height="40" rx="6" fill="#ff4d6d"/>
      <ellipse cx="20" cy="16" rx="12" ry="5" fill="rgba(255,255,255,0.45)"/>
    </g>
    <!-- big square -->
    <g transform="translate(290,170)">
      <rect width="44" height="44" rx="6" fill="#ffd23f"/>
      <rect x="44" width="44" height="44" rx="6" fill="#ffd23f"/>
      <rect y="44" width="44" height="44" rx="6" fill="#ffd23f"/>
      <rect x="44" y="44" width="44" height="44" rx="6" fill="#ffd23f"/>
      <ellipse cx="20" cy="16" rx="12" ry="5" fill="rgba(255,255,255,0.45)"/>
    </g>
  </g>

  <rect x="80" y="246" width="240" height="42" rx="21" fill="rgba(20,10,60,.82)" opacity="0.82"/>
  <text x="200" y="273" font-size="19" font-weight="900" fill="#fff" text-anchor="middle"
        font-family="'Inter','Helvetica Neue',Arial,sans-serif" letter-spacing="2">TETRIS 2</text>
</svg>